<svg width="24" height="24" viewBox="0 0 24 24" fill="none" xmlns="http://www.w3.org/2000/svg">
<path d="M9.01 21.25C8.82 21.25 8.63 21.18 8.48 21.03L3.47 16.02C3.18 15.73 3.18 15.25 3.47 14.96C3.76 14.67 4.24 14.67 4.53 14.96L9.54 19.97C9.83 20.26 9.83 20.74 9.54 21.03C9.39 21.17 9.2 21.25 9.01 21.25Z" fill="#8A8E85"/>
<path d="M9.01001 21.25C8.60001 21.25 8.26001 20.91 8.26001 20.5V3.5C8.26001 3.09 8.60001 2.75 9.01001 2.75C9.42001 2.75 9.76001 3.09 9.76001 3.5V20.5C9.76001 20.91 9.42001 21.25 9.01001 21.25Z" fill="#8A8E85"/>
<path d="M20.01 9.26C19.82 9.26 19.63 9.19 19.48 9.04L14.47 4.03C14.18 3.74 14.18 3.26 14.47 2.97C14.76 2.68 15.24 2.68 15.53 2.97L20.54 7.98C20.83 8.27 20.83 8.75 20.54 9.04C20.39 9.19 20.2 9.26 20.01 9.26Z" fill="#8A8E85"/>
<path d="M14.99 21.25C14.58 21.25 14.24 20.91 14.24 20.5V3.5C14.24 3.09 14.58 2.75 14.99 2.75C15.4 2.75 15.74 3.09 15.74 3.5V20.5C15.74 20.91 15.41 21.25 14.99 21.25Z" fill="#8A8E85"/>
</svg>
