<svg width="18" height="18" viewBox="0 0 18 18" fill="none" xmlns="http://www.w3.org/2000/svg">
<path d="M16.17 8.05498L15.15 6.86998C14.955 6.64498 14.7975 6.22498 14.7975 5.92498V4.64998C14.7975 3.85498 14.145 3.20248 13.35 3.20248H12.075C11.7825 3.20248 11.355 3.04498 11.13 2.84998L9.945 1.82998C9.4275 1.38748 8.58 1.38748 8.055 1.82998L6.8775 2.85748C6.6525 3.04498 6.225 3.20248 5.9325 3.20248H4.635C3.84 3.20248 3.1875 3.85498 3.1875 4.64998V5.93248C3.1875 6.22498 3.03 6.64498 2.8425 6.86998L1.83 8.06248C1.395 8.57998 1.395 9.41998 1.83 9.93748L2.8425 11.13C3.03 11.355 3.1875 11.775 3.1875 12.0675V13.35C3.1875 14.145 3.84 14.7975 4.635 14.7975H5.9325C6.225 14.7975 6.6525 14.955 6.8775 15.15L8.0625 16.17C8.58 16.6125 9.4275 16.6125 9.9525 16.17L11.1375 15.15C11.3625 14.955 11.7825 14.7975 12.0825 14.7975H13.3575C14.1525 14.7975 14.805 14.145 14.805 13.35V12.075C14.805 11.7825 14.9625 11.355 15.1575 11.13L16.1775 9.94498C16.6125 9.42748 16.6125 8.57248 16.17 8.05498ZM12.12 7.58248L8.4975 11.205C8.3925 11.31 8.25 11.37 8.1 11.37C7.95 11.37 7.8075 11.31 7.7025 11.205L5.8875 9.38998C5.67 9.17248 5.67 8.81248 5.8875 8.59498C6.105 8.37748 6.465 8.37748 6.6825 8.59498L8.1 10.0125L11.325 6.78748C11.5425 6.56998 11.9025 6.56998 12.12 6.78748C12.3375 7.00498 12.3375 7.36498 12.12 7.58248Z" fill="#19976A"/>
</svg>
